<svg width="36" height="34" viewBox="0 0 36 34" fill="none" xmlns="http://www.w3.org/2000/svg">
<path fill-rule="evenodd" clip-rule="evenodd" d="M17.8636 33.839C8.36966 33.839 0.67334 26.3757 0.67334 17.1693C0.67334 7.96281 8.36966 0.499512 17.8636 0.499512C27.3574 0.499512 35.0538 7.96281 35.0538 17.1693C35.0538 26.3757 27.3574 33.839 17.8636 33.839ZM17.8635 30.8081C25.6312 30.8081 31.9282 24.7017 31.9282 17.1692C31.9282 9.63666 25.6312 3.53032 17.8635 3.53032C10.0958 3.53032 3.79878 9.63666 3.79878 17.1692C3.79878 24.7017 10.0958 30.8081 17.8635 30.8081ZM17.8633 6.56128C18.7264 6.56128 19.426 7.23976 19.426 8.07671V16.5416L23.6565 20.644C24.2668 21.2358 24.2668 22.1954 23.6565 22.7872C23.0463 23.379 22.0568 23.379 21.4465 22.7872L16.7583 18.2409C16.4652 17.9567 16.3005 17.5712 16.3005 17.1693V8.07671C16.3005 7.23976 17.0002 6.56128 17.8633 6.56128Z" fill="#AACE9B"/>
</svg>
