<svg width="38" height="37" viewBox="0 0 38 37" fill="none" xmlns="http://www.w3.org/2000/svg">
<path d="M35.0921 32.0902C35.0921 32.0902 37.3841 32.0902 37.3841 29.8676C37.3841 27.6449 35.0921 20.9771 25.924 20.9771C16.7559 20.9771 14.4639 27.6449 14.4639 29.8676C14.4639 32.0902 16.7559 32.0902 16.7559 32.0902H35.0921ZM16.8071 29.8676C16.7992 29.8667 16.7881 29.8653 16.7746 29.8631C16.7682 29.8621 16.762 29.861 16.7559 29.8598C16.7592 29.273 17.1384 27.5714 18.4961 26.0353C19.7661 24.5985 21.9879 23.1997 25.924 23.1997C29.8601 23.1997 32.0819 24.5985 33.3519 26.0353C34.7096 27.5714 35.0888 29.273 35.0921 29.8598C35.086 29.861 35.0798 29.8621 35.0734 29.8631C35.06 29.8653 35.0489 29.8667 35.0409 29.8676H16.8071Z" fill="#AACE9B"/>
<path d="M25.9244 16.5316C28.4561 16.5316 30.5085 14.5414 30.5085 12.0864C30.5085 9.6313 28.4561 7.64109 25.9244 7.64109C23.3927 7.64109 21.3404 9.6313 21.3404 12.0864C21.3404 14.5414 23.3927 16.5316 25.9244 16.5316ZM32.8005 12.0864C32.8005 15.7689 29.722 18.7543 25.9244 18.7543C22.1269 18.7543 19.0483 15.7689 19.0483 12.0864C19.0483 8.40378 22.1269 5.41846 25.9244 5.41846C29.722 5.41846 32.8005 8.40378 32.8005 12.0864Z" fill="#AACE9B"/>
<path d="M16.6093 21.5993C15.7663 21.3378 14.8297 21.1477 13.7909 21.0505C13.2767 21.0024 12.7375 20.9771 12.1721 20.9771C3.00394 20.9771 0.711914 27.6449 0.711914 29.8676C0.711914 31.3493 1.47592 32.0902 3.00394 32.0902H12.668C12.3452 31.4588 12.1721 30.7103 12.1721 29.8676C12.1721 27.6221 13.0367 25.329 14.6699 23.4135C15.2279 22.759 15.8757 22.1487 16.6093 21.5993ZM11.9888 23.2007C10.6193 25.2303 9.88003 27.5442 9.88003 29.8676H3.00394C3.00394 29.2881 3.3804 27.5782 4.74418 26.0353C5.99432 24.621 8.16672 23.2434 11.9888 23.2007Z" fill="#AACE9B"/>
<path d="M4.1499 13.1977C4.1499 9.5151 7.22843 6.52979 11.026 6.52979C14.8235 6.52979 17.9021 9.5151 17.9021 13.1977C17.9021 16.8803 14.8235 19.8656 11.026 19.8656C7.22843 19.8656 4.1499 16.8803 4.1499 13.1977ZM11.026 8.75242C8.49428 8.75242 6.44193 10.7426 6.44193 13.1977C6.44193 15.6527 8.49428 17.6429 11.026 17.6429C13.5577 17.6429 15.61 15.6527 15.61 13.1977C15.61 10.7426 13.5577 8.75242 11.026 8.75242Z" fill="#AACE9B"/>
</svg>
