<svg width="25" height="26" viewBox="0 0 25 26" fill="none" xmlns="http://www.w3.org/2000/svg">
<path d="M3.44288 14.4024V24.004C3.44288 24.4284 3.26152 24.8355 2.93868 25.1356C2.61585 25.4357 2.178 25.6043 1.72144 25.6043C1.26489 25.6043 0.827031 25.4357 0.504199 25.1356C0.181366 24.8355 0 24.4284 0 24.004V14.4024C0 13.978 0.181366 13.571 0.504199 13.2708C0.827031 12.9707 1.26489 12.8021 1.72144 12.8021C2.178 12.8021 2.61585 12.9707 2.93868 13.2708C3.26152 13.571 3.44288 13.978 3.44288 14.4024ZM22.3787 25.6043C22.8353 25.6043 23.2731 25.4357 23.596 25.1356C23.9188 24.8355 24.1002 24.4284 24.1002 24.004V1.60027C24.1002 1.17585 23.9188 0.768816 23.596 0.468708C23.2731 0.168599 22.8353 0 22.3787 0C21.9222 0 21.4843 0.168599 21.1615 0.468708C20.8387 0.768816 20.6573 1.17585 20.6573 1.60027V24.004C20.6573 24.4284 20.8387 24.8355 21.1615 25.1356C21.4843 25.4357 21.9222 25.6043 22.3787 25.6043ZM12.0501 25.6043C12.5066 25.6043 12.9445 25.4357 13.2673 25.1356C13.5902 24.8355 13.7715 24.4284 13.7715 24.004V8.00134C13.7715 7.57692 13.5902 7.16988 13.2673 6.86978C12.9445 6.56967 12.5066 6.40107 12.0501 6.40107C11.5935 6.40107 11.1557 6.56967 10.8328 6.86978C10.51 7.16988 10.3286 7.57692 10.3286 8.00134V24.004C10.3286 24.4284 10.51 24.8355 10.8328 25.1356C11.1557 25.4357 11.5935 25.6043 12.0501 25.6043Z" fill="#AACE9B"/>
</svg>
