<svg width="29" height="31" viewBox="0 0 29 31" fill="none" xmlns="http://www.w3.org/2000/svg">
<path fill-rule="evenodd" clip-rule="evenodd" d="M11.625 4.70817C7.48286 4.70817 4.125 8.21527 4.125 12.5415C4.125 16.8677 7.48286 20.3748 11.625 20.3748C15.7671 20.3748 19.125 16.8677 19.125 12.5415C19.125 8.21527 15.7671 4.70817 11.625 4.70817ZM0.375 12.5415C0.375 6.05216 5.41179 0.791504 11.625 0.791504C17.8382 0.791504 22.875 6.05216 22.875 12.5415C22.875 15.0791 22.1047 17.4289 20.7951 19.3496L27.9508 26.8234C28.683 27.5882 28.683 28.8282 27.9508 29.5929C27.2186 30.3576 26.0314 30.3576 25.2992 29.5929L18.1434 22.1191C16.3044 23.487 14.0546 24.2915 11.625 24.2915C5.41179 24.2915 0.375 19.0308 0.375 12.5415Z" fill="#AACE9B"/>
</svg>
