<svg width="12" height="12" viewBox="0 0 12 12" fill="none" xmlns="http://www.w3.org/2000/svg">
<path d="M2.7404 0.996368C2.55257 0.754871 2.19559 0.732645 1.97925 0.94898L1.20381 1.72442C0.841203 2.08703 0.707902 2.60074 0.866327 3.05135C1.50253 4.86093 2.54411 6.56003 3.99204 8.00796C5.43997 9.45589 7.13907 10.4975 8.94865 11.1337C9.39926 11.2921 9.91297 11.1588 10.2756 10.7962L11.051 10.0207C11.2674 9.80441 11.2451 9.44743 11.0036 9.2596L9.27399 7.91432C9.15062 7.81836 8.98998 7.78446 8.83836 7.82236L7.19656 8.23281C6.75061 8.3443 6.27887 8.21363 5.95384 7.8886L4.1114 6.04616C3.78637 5.72113 3.6557 5.24939 3.76719 4.80344L4.17764 3.16165C4.21555 3.01002 4.18164 2.84938 4.08568 2.72601L2.7404 0.996368ZM1.41358 0.383307C1.97017 -0.173279 2.88862 -0.116098 3.37187 0.505226L4.71715 2.23487C4.96403 2.55228 5.05126 2.96556 4.95374 3.35567L4.54329 4.99747C4.49995 5.1708 4.55074 5.35416 4.67708 5.48049L6.51951 7.32293C6.64585 7.44926 6.8292 7.50005 7.00253 7.45672L8.64433 7.04627C9.03444 6.94874 9.44772 7.03598 9.76513 7.28285L11.4948 8.62813C12.1161 9.11138 12.1733 10.0298 11.6167 10.5864L10.8413 11.3619C10.2865 11.9167 9.45666 12.1603 8.68331 11.8884C6.76316 11.2133 4.96079 10.1081 3.42637 8.57363C1.89195 7.03921 0.786712 5.23684 0.111629 3.31669C-0.160262 2.54334 0.0833475 1.71354 0.638137 1.15875L1.41358 0.383307Z" fill="#373867"/>
</svg>
